<svg width="764" height="643" viewBox="0 0 764 643" fill="none" xmlns="http://www.w3.org/2000/svg">
<path d="M283.722 17.3686C270.856 -5.78955 237.405 -5.78955 224.539 17.3686L3.24953 418.778C-7.04302 439.363 8.39582 462.521 31.5541 462.521H180.796V614.337C180.796 629.776 193.662 642.641 209.101 642.641H296.587C312.026 642.641 324.892 629.776 324.892 614.337V462.521H283.722C265.71 462.521 252.844 449.656 250.271 434.217C250.271 429.071 250.271 423.925 252.844 418.727L376.355 194.864L283.722 17.3686Z" fill="#5CA720"/>
<path d="M479.28 17.3686C492.146 -5.78955 525.597 -5.78955 538.462 17.3686L759.752 418.778C770.045 439.363 754.606 462.521 731.448 462.521H584.779V614.337C584.779 629.776 571.913 642.641 556.448 642.641H463.841C448.402 642.641 435.537 629.776 435.537 614.337V462.521H476.707C494.719 462.521 507.585 449.656 510.158 434.217C510.158 429.071 510.158 423.925 507.585 418.727L384.074 194.915L479.28 17.3686Z" fill="#5CA720"/>
</svg>
